<svg xmlns="http://www.w3.org/2000/svg" width="141" height="45" fill="none"><g clip-path="url(#a)"><path d="M59.5.414c-2 .25-3.75.475-3.9.475-.675.05-1.375 1-1.7 2.275-.2.75-.65 2.45-1 3.75-.35 1.3-1.025 3.9-1.5 5.75-1.025 3.975-3.575 13.825-4.525 17.35-.35 1.375-.625 2.775-.575 3.125l.06.525a.141.141 0 0 0 .14.128l3.147.072c1.8.025 3.55-.05 3.875-.175.475-.175.825-.725 1.425-2.3 1.2-3.075.75-2.85 4.45-2.375 1.775.225 3.45.475 3.725.525.375.075.725.7 1.35 2.3.475 1.2.975 2.325 1.125 2.475.275.275 2.525.125 4.475-.3.85-.175 2.325-1.425 2.825-2.375.6-1.175.425-2.6-1.025-8.475-.775-3.1-2.275-9.275-3.375-13.75-1.175-4.775-2.2-8.375-2.475-8.75-.6-.825-1.725-.85-6.525-.25h.003zm1.2 15.3c.3.375 1.8 6.475 1.8 7.325 0 .315-.093.653-.235.743l-.028.015c-.387.152-4.067-.385-4.535-.658-.25-.175-.15-.85.475-3.275.425-1.7.9-3.375 1.05-3.775.275-.725 1.025-.9 1.475-.375H60.7z" fill="#094353"/><path d="M76.32.342c-3.25.075-3.55.125-3.7.575-.15.475.075 2.525.675 6.475l.113.74c.09.603.647 1.023 1.25.943l.062-.008c.65-.075 2.275-.25 3.65-.4 2.475-.225 2.5-.225 3.375-1.225 1.1-1.25 1.675-1.525 3.15-1.525 1.025 0 1.275.125 2.175 1l.01.01c.628.643.943 1.53.865 2.425l-.025.29c-.055.683-.132 1.795-.187 1.923-.048.107.247.78.43 1.02.092.12.172.25.225.392.31.865.307 1.218.085 1.915-.525 1.675-1.725 2.525-3.55 2.525-.875 0-1.275-.175-2.15-.9-.875-.75-1.175-.875-1.85-.75-.45.075-1.95.3-3.375.5-.643.08-1.24.168-1.71.248-.585.097-.99.635-.923 1.225.19 1.695.728 5.517 1.633 11.627.65 4.225.55 4.05 2.975 6 1.1.925 1.45 1.075 2.1.95.9-.175 2.025-1.425 3-3.35.7-1.35.7-1.4.575-5.05-.075-2.075-.05-3.85.1-4.075.2-.35.675-.425 3.075-.425 1.575 0 3.1-.1 3.425-.225 2.425-.95 2.8-1.2 4.45-3.1 1-1.15 1.9-2.45 2.15-3.125.55-1.575.775-8.2.35-10.6-.525-3.025-2.675-5.325-5.5-5.925-1.2-.25-7.625-.3-16.925-.1h-.003zM121.8.337l-.265.047a.345.345 0 0 0-.282.34l.047 5.135.07 5.105c0 .18.143.328.323.338l1.805.105c1.175.075 2.3.225 2.525.375.525.325.725 4.15.725 13.925 0 5.95.05 7.225.375 7.525.275.3.975.35 3.675.25 1.455-.06 2.752-.153 3.267-.238a.339.339 0 0 0 .28-.29c.108-.825.273-3.77.4-7.172.45-11.575.6-13.875 1.025-14.15.2-.125 1.45-.225 2.8-.225h2.083c.19 0 .342-.155.342-.343V.507a.342.342 0 0 0-.345-.343l-8.955.025c-5.125.025-9.575.1-9.9.15l.005-.002zM101.9.74c-.4.3-.4 1.024-.15 12.3.375 16.35.525 19.95.8 20.3.325.4 15.1.45 15.7.074.3-.2.35-.775.3-3.175-.05-1.9-.2-3-.375-3.125-.175-.1-2.1-.2-4.325-.2-4.9 0-4.85.025-4.85-2.8 0-1.325.1-1.975.35-2.175.2-.175 1.075-.4 1.95-.55.85-.15 2.225-.425 3-.625.8-.2 1.675-.35 1.95-.35.475 0 .5-.15.5-2.375v-2.375h-3.2c-4.05 0-4.3-.15-4.3-2.7 0-2.55-.075-2.5 4.575-2.6 3.575-.075 4-.125 4.325-.55.425-.6.5-8.125.1-8.925-.25-.45-.6-.475-8.075-.475-5.95 0-7.925.075-8.275.325z" fill="#00A17B"/><path d="M4.875.916c-2.6.075-4.775.175-4.8.2C.025 1.141 0 8.416 0 17.291v16.125l.6.375c.5.35 1.75.375 9.35.325 6.8-.05 8.85-.15 9.1-.4.225-.225.325-1.175.325-3.2 0-2.575-.05-2.925-.475-3.25-.4-.275-1.675-.35-6.175-.35-6.475 0-5.975.225-5.975-2.5 0-2.525-.075-2.5 5.125-2.5 2.4 0 4.625-.1 4.975-.25.625-.225.65-.3.65-2.475 0-1.225-.075-2.3-.175-2.35-.125-.075-2.325-.375-4.95-.675-2.6-.325-4.9-.7-5.075-.825-.225-.175-.3-.825-.25-2.15l.075-1.9 5.425-.175c2.975-.075 5.625-.275 5.9-.425.675-.35.825-1.45.775-5.225-.025-3.25-.3-4.325-1.1-4.65-.45-.175-5.975-.125-13.25.1zM27.225 1.166c-2.3.4-3.8 1.5-4.7 3.5-.45.975-.525 1.65-.525 4.975 0 2.325.125 4.25.3 4.875.45 1.425 3.575 4.675 5.4 5.575 1.2.6 1.7.675 4.4.75 2.725.075 3.075.125 3.475.6.575.725.575 2.5-.05 3.25-.475.6-.5.6-6.8.675-4.575.05-6.4.15-6.525.375-.223.345-.25 6.647-.058 7.592.006.023.01.043.018.065.098.323.395.54.732.538l7.708-.07 8.102-.073a.742.742 0 0 0 .328-.077l1.52-.748c1.9-.925 3.225-2.3 3.65-3.775.175-.575.3-2.725.3-5.325 0-5.8-.3-6.85-2.5-8.475-1.85-1.375-2.45-1.55-5.825-1.725-3.675-.15-3.925-.3-3.925-2.125s.075-1.875 7.15-2.025c5.325-.125 6.275-.225 6.625-.575.35-.35 1.225-5.1 1.225-6.7 0-1.325-.05-1.325-9.825-1.3-4.975.025-9.575.125-10.2.225v-.002z" fill="#094353"/><path d="M86.925 32.04c-.8.75-.875 1.75-.275 3.024.45.925 2.175 2.6 2.675 2.6 1.05 0 1.725-2.225 1.175-3.85-.275-.875-1.875-2.4-2.55-2.4-.175 0-.65.275-1.025.625zM74 33.639c-.9.25-1.75 1.65-1.75 2.875 0 1.325.925 3 1.725 3.1 1.725.25 3.225-3.9 1.95-5.5-.375-.5-1.125-.7-1.925-.475zM83.95 37.09c-.65.75-.95 1.5-.95 2.374 0 .825.7 3.275 1.075 3.875.325.5 1.525.375 2.125-.175 2.325-2.175 1.7-6.5-.95-6.5-.575 0-1.075.175-1.3.425zM78.05 37.689c-.675.25-1.225 1.125-1.425 2.25-.275 1.5.825 3.225 2.8 4.35.775.45.825.45 1.325 0 .425-.4.5-.75.5-2.6 0-2.025-.05-2.225-.75-3.075-.775-.95-1.575-1.25-2.45-.925z" fill="#00A17B"/></g><defs><clipPath id="a"><path fill="#fff" d="M0 0h141v44.627H0z"/></clipPath></defs></svg>